# xmcd
#
# Track frame offsets:
#	150
#	15328
#	28159
#	41541
#	54086
#	64939
#	79718
#	93545
#	107793
#	125050
#	138783
#
# Disc length: 2131 seconds
#
# Revision: 1
# Processed by: cddbd v1.5.2PL0 Copyright (c) Steve Scherf et al.
# Submitted via: audiograbber 1.83.01
#
DISCID=8908510b
DTITLE=The Pozo-Seco Singers - Shades Of Time
DYEAR=1968
DGENRE=Country
TTITLE0=Good Morning Today
TTITLE1=You Ain't Going Nowhere
TTITLE2=You've Got To Hide Your Love Away
TTITLE3=Green, Green Grass Of Home
TTITLE4=Hey Babe Open Up Your Mind
TTITLE5=You Better Sit Down Kids
TTITLE6=Spanish Harlem Incident
TTITLE7=Bye Bye Love
TTITLE8=The Renegade
TTITLE9=Gotta Come Up With Something
TTITLE10=Keep On Keeping On
EXTD=
EXTT0=
EXTT1=
EXTT2=
EXTT3=
EXTT4=
EXTT5=
EXTT6=
EXTT7=
EXTT8=
EXTT9=
EXTT10=
PLAYORDER=
